# xmcd
#
# Track frame offsets:
#	150
#	17140
#	36717
#	64359
#	83855
#	110592
#
# Disc length: 1710 seconds
#
# Revision: 0
# Processed by: cddbd v1.5.1PL0 Copyright (c) Steve Scherf et al.
# Submitted via: audiograbber 1.83.01
#
DISCID=5306ac06
DTITLE=2 Black - Waves of luv (Maxi)
DYEAR=1900
DGENRE=
TTITLE0=Waves of luv (Soulstatic radio mix)
TTITLE1=Waves of luv (Soulstatic radio2 mix)
TTITLE2=Waves of luv (The Disco Boys remix)
TTITLE3=Waves of luv (Soulstatic Karaoke mix)
TTITLE4=Waves of luv (Mattara vs Vtraxx extended mix)
TTITLE5=Waves of luv (Mattara vs Vtraxx radio mix)
EXTD=
EXTT0=
EXTT1=
EXTT2=
EXTT3=
EXTT4=
EXTT5=
PLAYORDER=
